<svg xmlns="http://www.w3.org/2000/svg" width="64" height="64"><path d="M 24 0 C 10.75146 0 -4e-005 10.748847 0 23.998047 C 2e-005 37.247147 10.7515 48 24 48 C 37.24849 48 47.99998 37.247147 48 23.998047 C 48.00004 10.748847 37.24854 0 24 0 z M 24 1.0078125 C 36.70433 1.0078125 46.992227 11.293247 46.992188 23.998047 C 46.992177 36.702847 36.70429 46.992188 24 46.992188 C 11.29571 46.992188 1.0078225 36.702847 1.0078125 23.998047 C 1.0077725 11.293247 11.29567 1.0078125 24 1.0078125 z M 15.298828 9.78125 C 14.814688 9.78195 14.440318 10.09655 14.080078 10.40625 C 13.908358 10.33525 13.737168 10.2501 13.548828 10.25 C 12.946348 10.25 12.540198 10.6603 12.330078 11.1875 C 12.306278 11.1875 12.291678 11.15625 12.267578 11.15625 C 11.989648 11.15635 11.895978 11.4546 11.705078 11.625 C 11.699078 11.635 11.679928 11.615 11.673828 11.625 C 10.891078 11.625 10.267578 12.2797 10.267578 13.0625 C 10.267578 13.8453 10.891078 14.5 11.673828 14.5 L 16.330078 14.5 C 17.112828 14.5 17.767578 13.8453 17.767578 13.0625 C 17.767578 12.6904 17.472028 12.47345 17.236328 12.21875 C 17.267928 12.07645 17.298628 11.92735 17.298828 11.78125 C 17.298808 10.68795 16.392178 9.78125 15.298828 9.78125 z M 15.298828 10.78125 C 15.785608 10.78125 16.298818 11.29455 16.298828 11.78125 C 16.298718 11.88025 16.265428 11.9676 16.236328 12.0625 L 16.111328 12.5 L 16.517578 12.6875 C 16.663808 12.7575 16.767578 12.8863 16.767578 13.0625 C 16.767578 13.3087 16.576188 13.5 16.330078 13.5 L 11.673828 13.5 C 11.427718 13.5 11.267578 13.3087 11.267578 13.0625 C 11.267578 12.8165 11.427718 12.625 11.673828 12.625 L 11.705078 12.625 L 12.111328 12.625 L 12.205078 12.21875 C 12.206078 12.20875 12.260278 12.15725 12.267578 12.15625 C 12.281478 12.15635 12.319178 12.1795 12.330078 12.1875 L 13.009766 12.232422 L 13.111328 11.71875 C 13.108328 11.69975 13.111578 11.678203 13.111328 11.658203 C 13.111318 11.475303 13.365918 11.251953 13.548828 11.251953 C 13.631028 11.252053 13.730798 11.2665 13.798828 11.3125 L 14.173828 11.59375 L 14.486328 11.1875 C 14.666028 10.9391 14.992278 10.78165 15.298828 10.78125 z M 25.017578 12 L 25.017578 13 L 30.017578 13 L 30.017578 12 L 25.017578 12 z M 31.017578 12 L 31.017578 13 L 32.017578 13 L 32.017578 12 L 31.017578 12 z M 33.017578 12 L 33.017578 13 L 34.017578 13 L 34.017578 12 L 33.017578 12 z M 34.298828 14.78125 C 33.814708 14.78185 33.440328 15.09665 33.080078 15.40625 C 32.908358 15.33525 32.737168 15.2501 32.548828 15.25 C 31.946348 15.25 31.540198 15.6603 31.330078 16.1875 C 31.306278 16.1875 31.291678 16.15625 31.267578 16.15625 C 30.989648 16.15635 30.895978 16.4546 30.705078 16.625 C 30.699078 16.635 30.679928 16.615 30.673828 16.625 C 29.891078 16.625 29.267578 17.2797 29.267578 18.0625 C 29.267578 18.8453 29.891078 19.5 30.673828 19.5 L 35.330078 19.5 C 36.112828 19.5 36.767578 18.8453 36.767578 18.0625 C 36.767578 17.6904 36.472058 17.47335 36.236328 17.21875 C 36.267928 17.07645 36.298628 16.92735 36.298828 16.78125 C 36.298808 15.68795 35.392178 14.78125 34.298828 14.78125 z M 34.298828 15.78125 C 34.785608 15.78125 35.298818 16.29455 35.298828 16.78125 C 35.298718 16.88025 35.265428 16.9676 35.236328 17.0625 L 35.111328 17.5 L 35.517578 17.6875 C 35.663688 17.7565 35.767578 17.8863 35.767578 18.0625 C 35.767578 18.3087 35.576188 18.5 35.330078 18.5 L 30.673828 18.5 C 30.427718 18.5 30.267578 18.3087 30.267578 18.0625 C 30.267578 17.8165 30.427718 17.625 30.673828 17.625 L 30.705078 17.625 L 31.111328 17.625 L 31.205078 17.21875 C 31.206078 17.20875 31.260278 17.15725 31.267578 17.15625 C 31.281478 17.15635 31.319178 17.1795 31.330078 17.1875 L 31.941406 17.298828 L 32.111328 16.71875 C 32.108328 16.69975 32.111578 16.67625 32.111328 16.65625 C 32.111318 16.47335 32.365918 16.25 32.548828 16.25 C 32.631028 16.2501 32.730798 16.2665 32.798828 16.3125 L 33.173828 16.59375 L 33.486328 16.1875 C 33.666038 15.9392 33.992288 15.78165 34.298828 15.78125 z M 10.017578 16 L 10.017578 17 L 11.017578 17 L 11.017578 16 L 10.017578 16 z M 12.017578 16 L 12.017578 17 L 13.017578 17 L 13.017578 16 L 12.017578 16 z M 14.017578 16 L 14.017578 17 L 15.017578 17 L 15.017578 16 L 14.017578 16 z M 19.330078 16 C 19.244778 16.031 19.168258 16.08595 19.111328 16.15625 L 9.1425781 28.125 C 8.9441781 28.3166 8.9545294 28.679728 9.1621094 28.861328 C 9.3696794 29.042928 9.7289981 29.00355 9.8925781 28.78125 L 16.798828 20.5 L 17.642578 21.34375 C 17.807198 21.51825 18.104228 21.54705 18.298828 21.40625 L 19.517578 20.59375 L 20.736328 21.40625 C 20.925758 21.53015 21.200198 21.50275 21.361328 21.34375 L 22.205078 20.5 L 23.111328 21.625 C 23.438578 22.0341 24.219828 21.4091 23.892578 21 L 19.861328 16.15625 C 19.735618 16.00635 19.516918 15.9421 19.330078 16 z M 19.486328 17.25 L 21.548828 19.71875 L 20.955078 20.3125 L 19.798828 19.5625 C 19.634178 19.4505 19.400978 19.4505 19.236328 19.5625 L 18.080078 20.34375 L 17.455078 19.71875 L 19.486328 17.25 z M 31.267578 20.96875 C 31.203878 20.96875 31.139818 20.979 31.080078 21 C 30.994778 21.031 30.918258 21.08595 30.861328 21.15625 L 23.455078 30 C 23.445078 29.989 23.434628 29.97875 23.423828 29.96875 L 20.611328 26.59375 C 20.424328 26.38175 20.048328 26.38175 19.861328 26.59375 L 10.142578 38.15625 C 9.8729081 38.44095 10.125478 39.0094 10.517578 39 L 16.955078 39 L 29.955078 39 L 30.017578 39 L 37.517578 39 C 37.781738 39 38.025391 38.7642 38.025391 38.5 C 38.025391 38.2358 37.781738 37.9963 37.517578 38 L 30.080078 38 L 29.955078 38 L 16.830078 38 L 11.580078 38 L 17.330078 31.15625 L 18.142578 31.875 C 18.299398 32.0195 18.552848 32.0467 18.736328 31.9375 L 19.986328 31.09375 L 21.236328 31.90625 C 21.407128 32.00925 21.640498 31.996 21.798828 31.875 L 23.017578 31 L 23.048828 31.03125 C 23.082628 31.08025 23.125228 31.12225 23.173828 31.15625 L 23.205078 31.1875 C 23.413828 31.3136 23.713538 31.2565 23.861328 31.0625 L 27.736328 26.4375 L 28.642578 27.34375 C 28.828458 27.53585 29.175448 27.53585 29.361328 27.34375 L 29.986328 26.6875 L 30.642578 27.34375 C 30.828458 27.53585 31.175448 27.53585 31.361328 27.34375 L 31.986328 26.6875 L 32.642578 27.34375 C 32.828458 27.53585 33.175448 27.53585 33.361328 27.34375 L 34.548828 26.21875 L 37.111328 29.28125 C 37.454938 29.69025 38.236188 29.0341 37.892578 28.625 L 31.642578 21.15625 C 31.552478 21.04355 31.411718 20.97315 31.267578 20.96875 z M 31.236328 22.28125 L 33.923828 25.46875 L 33.017578 26.28125 L 32.361328 25.625 C 32.175448 25.4329 31.828458 25.4329 31.642578 25.625 L 30.986328 26.25 L 30.361328 25.625 C 30.175448 25.4329 29.828458 25.4329 29.642578 25.625 L 28.986328 26.25 L 28.392578 25.65625 L 31.236328 22.28125 z M 20.236328 27.6875 L 22.361328 30.21875 L 21.486328 30.84375 L 20.267578 30.0625 C 20.102928 29.9505 19.869728 29.9505 19.705078 30.0625 L 18.517578 30.875 L 17.955078 30.40625 L 20.236328 27.6875 z " color="#000" font-family="Sans" font-weight="400" overflow="visible" style="line-height:normal;-inkscape-font-specification:Sans;text-indent:0;text-align:start;text-decoration-line:none;text-transform:none;block-progression:tb;marker:none"/></svg>