<svg xmlns="http://www.w3.org/2000/svg" width="64" height="64"><path d="M 24 0 C 10.75146 0 -4e-005 10.748847 0 23.998047 C 2e-005 37.247147 10.7515 48 24 48 C 37.24849 48 47.99998 37.247147 48 23.998047 C 48.00004 10.748847 37.24854 0 24 0 z M 24 1.0078125 C 36.70433 1.0078125 46.992227 11.293247 46.992188 23.998047 C 46.992177 36.702847 36.70429 46.992188 24 46.992188 C 11.29571 46.992188 1.0078225 36.702847 1.0078125 23.998047 C 1.0077725 11.293247 11.29567 1.0078125 24 1.0078125 z M 15.298828 8.78125 C 14.814688 8.78195 14.440318 9.09655 14.080078 9.40625 C 13.908358 9.33525 13.737168 9.2501 13.548828 9.25 C 12.946348 9.25 12.540198 9.6603 12.330078 10.1875 C 12.306278 10.1875 12.291678 10.15625 12.267578 10.15625 C 11.989648 10.15635 11.895978 10.4546 11.705078 10.625 C 11.699078 10.635 11.679928 10.615 11.673828 10.625 C 10.891078 10.625 10.267578 11.2797 10.267578 12.0625 C 10.267578 12.8453 10.891078 13.5 11.673828 13.5 L 16.330078 13.5 C 17.112828 13.5 17.767578 12.8453 17.767578 12.0625 C 17.767578 11.6904 17.472028 11.47345 17.236328 11.21875 C 17.267928 11.07645 17.298628 10.92735 17.298828 10.78125 C 17.298808 9.68795 16.392178 8.78125 15.298828 8.78125 z M 25.017578 11 L 25.017578 12 L 30.017578 12 L 30.017578 11 L 25.017578 11 z M 31.017578 11 L 31.017578 12 L 32.017578 12 L 32.017578 11 L 31.017578 11 z M 33.017578 11 L 33.017578 12 L 34.017578 12 L 34.017578 11 L 33.017578 11 z M 34.298828 13.78125 C 33.814708 13.78185 33.440328 14.09665 33.080078 14.40625 C 32.908358 14.33525 32.737168 14.2501 32.548828 14.25 C 31.946348 14.25 31.540198 14.6603 31.330078 15.1875 C 31.306278 15.1875 31.291678 15.15625 31.267578 15.15625 C 30.989648 15.15635 30.895978 15.4546 30.705078 15.625 C 30.699078 15.635 30.679928 15.615 30.673828 15.625 C 29.891078 15.625 29.267578 16.2797 29.267578 17.0625 C 29.267578 17.8453 29.891078 18.5 30.673828 18.5 L 35.330078 18.5 C 36.112828 18.5 36.767578 17.8453 36.767578 17.0625 C 36.767578 16.6904 36.472058 16.47335 36.236328 16.21875 C 36.267928 16.07645 36.298628 15.92735 36.298828 15.78125 C 36.298808 14.68795 35.392178 13.78125 34.298828 13.78125 z M 10.017578 15 L 10.017578 16 L 11.017578 16 L 11.017578 15 L 10.017578 15 z M 12.017578 15 L 12.017578 16 L 13.017578 16 L 13.017578 15 L 12.017578 15 z M 14.017578 15 L 14.017578 16 L 15.017578 16 L 15.017578 15 L 14.017578 15 z M 19.330078 15 C 19.244778 15.031 19.168258 15.08595 19.111328 15.15625 L 9.1425781 27.125 C 8.9441781 27.3166 8.9545294 27.679728 9.1621094 27.861328 C 9.3696794 28.042928 9.7289981 28.00355 9.8925781 27.78125 L 16.798828 19.5 L 17.642578 20.34375 C 17.807198 20.51825 18.104228 20.54705 18.298828 20.40625 L 19.517578 19.59375 L 20.736328 20.40625 C 20.925758 20.53015 21.200198 20.50275 21.361328 20.34375 L 22.205078 19.5 L 23.111328 20.625 C 23.438578 21.0341 24.219828 20.4091 23.892578 20 L 19.861328 15.15625 C 19.735618 15.00635 19.516918 14.9421 19.330078 15 z M 31.267578 19.96875 C 31.203878 19.96875 31.139818 19.979 31.080078 20 C 30.994778 20.031 30.918258 20.08595 30.861328 20.15625 L 23.455078 29 C 23.445078 28.989 23.434628 28.97875 23.423828 28.96875 L 20.611328 25.59375 C 20.424328 25.38175 20.048328 25.38175 19.861328 25.59375 L 10.142578 37.15625 C 9.8729081 37.44095 10.125478 38.0094 10.517578 38 L 16.955078 38 L 29.955078 38 L 30.017578 38 L 37.517578 38 C 37.781738 38 38.025391 37.7642 38.025391 37.5 C 38.025391 37.2358 37.781738 36.9963 37.517578 37 L 30.080078 37 L 29.955078 37 L 16.830078 37 L 11.580078 37 L 17.330078 30.15625 L 18.142578 30.875 C 18.299398 31.0195 18.552848 31.0467 18.736328 30.9375 L 19.986328 30.09375 L 21.236328 30.90625 C 21.407128 31.00925 21.640498 30.996 21.798828 30.875 L 23.017578 30 L 23.048828 30.03125 C 23.082628 30.08025 23.125228 30.12225 23.173828 30.15625 L 23.205078 30.1875 C 23.413828 30.3136 23.713538 30.2565 23.861328 30.0625 L 27.736328 25.4375 L 28.642578 26.34375 C 28.828458 26.53585 29.175448 26.53585 29.361328 26.34375 L 29.986328 25.6875 L 30.642578 26.34375 C 30.828458 26.53585 31.175448 26.53585 31.361328 26.34375 L 31.986328 25.6875 L 32.642578 26.34375 C 32.828458 26.53585 33.175448 26.53585 33.361328 26.34375 L 34.548828 25.21875 L 37.111328 28.28125 C 37.454938 28.69025 38.236188 28.0341 37.892578 27.625 L 31.642578 20.15625 C 31.552478 20.04355 31.411718 19.97315 31.267578 19.96875 z " color="#000" font-family="Sans" font-weight="400" overflow="visible" style="line-height:normal;-inkscape-font-specification:Sans;text-indent:0;text-align:start;text-decoration-line:none;text-transform:none;block-progression:tb;marker:none"/></svg>